<svg width="23" height="22" viewBox="0 0 23 22" fill="none" xmlns="http://www.w3.org/2000/svg">
<path d="M22.104 7.33333H18.7783L18.0696 3.06167C17.9268 2.41536 17.6131 1.82013 17.162 1.33917C16.7108 0.85821 16.139 0.509478 15.5072 0.33C14.8724 0.12398 14.2111 0.0128013 13.5445 0H9.47369C8.807 0.0128013 8.14576 0.12398 7.511 0.33C6.87919 0.509478 6.30734 0.85821 5.85619 1.33917C5.40503 1.82013 5.0914 2.41536 4.94859 3.06167L4.23984 7.33333H0.914167C0.771034 7.33246 0.62972 7.36571 0.50174 7.43037C0.373759 7.49503 0.262731 7.58929 0.177703 7.70544C0.0926741 7.8216 0.0360496 7.95638 0.012443 8.0988C-0.0111636 8.24122 -0.00108446 8.38725 0.0418588 8.525L3.4584 20.075C3.63234 20.633 3.97809 21.1205 4.44543 21.4666C4.91278 21.8128 5.47736 21.9996 6.05715 22H16.961C17.5377 21.9958 18.0982 21.8071 18.5619 21.4612C19.0256 21.1153 19.3686 20.63 19.5416 20.075L22.9581 8.525C23.0006 8.38873 23.011 8.24432 22.9883 8.1033C22.9657 7.96228 22.9106 7.82856 22.8277 7.71279C22.7447 7.59703 22.6361 7.50243 22.5104 7.43655C22.3848 7.37067 22.2456 7.33532 22.104 7.33333ZM6.0935 7.33333L6.74773 3.355C6.81945 3.03018 6.98582 2.73441 7.22546 2.50573C7.4651 2.27704 7.76707 2.12587 8.09253 2.07167C8.53959 1.92867 9.00482 1.84983 9.47369 1.83333H13.5445C14.0188 1.848 14.4895 1.92867 14.9438 2.07167C15.2693 2.12587 15.5712 2.27704 15.8109 2.50573C16.0505 2.73441 16.2169 3.03018 16.2886 3.355L16.9247 7.33333H6.0208H6.0935Z" fill="#51A2FF" fill-opacity="0.9"/>
</svg>
