<svg width="48" height="42" viewBox="0 0 48 42" fill="none" xmlns="http://www.w3.org/2000/svg">
<g clip-path="url(#clip0_10_119)">
<g clip-path="url(#clip1_10_119)">
<path d="M15.6167 27.971C16.1404 26.4967 16.6714 24.9708 17.2172 23.4744C18.53 19.855 19.9092 16.2651 21.3253 12.6899L18.5964 4.50763C18.3 3.4108 17.7802 2.38692 17.0697 1.50007C16.5953 1.00306 16.0221 0.610588 15.3871 0.347823C14.7521 0.085058 14.0691 -0.0422076 13.382 -0.0258177C12.6956 -0.0368513 12.0143 0.0928594 11.38 0.355305C10.7457 0.61775 10.172 1.00736 9.69433 1.50007C9.00756 2.39467 8.5061 3.41711 8.21925 4.50763L1.09465 33.647C0.817313 34.4955 0.600427 35.3626 0.445613 36.2418C0.432302 36.9274 0.56032 37.6085 0.821702 38.2426C1.08308 38.8766 1.47223 39.4502 1.96494 39.9275C2.44249 40.4199 3.01633 40.8089 3.65075 41.0701C4.28517 41.3314 4.9666 41.4593 5.65262 41.446C6.33562 41.4664 7.01551 41.346 7.64994 41.0923C8.28437 40.8387 8.85977 40.4572 9.34031 39.9717C10.0368 39.0749 10.5391 38.0432 10.8154 36.942L14.0532 23.3343L15.6167 27.971Z" fill="#662D91"/>
<path d="M41.8878 14.9304C39.6654 20.5573 37.5585 26.226 35.5671 31.9364L36.7472 36.8826C37.0296 37.9815 37.5313 39.0121 38.2223 39.9123C38.7057 40.3939 39.2816 40.7729 39.9153 41.0262C40.5491 41.2796 41.2276 41.4022 41.91 41.3866C43.2792 41.3866 44.5924 40.8429 45.5606 39.8752C46.5288 38.9076 47.0727 37.5951 47.0727 36.2266C46.9179 35.3474 46.701 34.4803 46.4237 33.6318L41.8878 14.9304Z" fill="#D4145A"/>
<path d="M34.6083 27.919C34.9845 26.8575 35.3459 25.796 35.7442 24.7345C37.4011 20.174 39.1417 15.6479 40.9659 11.1563L39.336 4.52196C39.0395 3.42513 38.5198 2.40125 37.8093 1.5144C37.3408 1.01575 36.7736 0.619959 36.1438 0.352191C35.514 0.0844217 34.8354 -0.0494707 34.1511 -0.0409768C33.4647 -0.0520103 32.7833 0.0777004 32.1491 0.340146C31.5148 0.602591 30.9411 0.9922 30.4634 1.48492C29.7766 2.37951 29.2752 3.40195 28.9883 4.49247L23.8256 20.0389L22.439 16.0288C20.4722 21.1348 18.5866 26.2776 16.7821 31.4573L18.5964 36.89C18.5908 36.9168 18.5908 36.9444 18.5964 36.9711C18.7512 38.0286 19.2425 39.0082 19.9977 39.7649C20.4827 40.2815 21.069 40.6927 21.7199 40.973C22.3708 41.2533 23.0725 41.3966 23.7813 41.394C25.0319 41.4068 26.2446 40.9655 27.1941 40.152C28.1436 39.3386 28.7655 38.2083 28.9441 36.9711C28.9496 36.9444 28.9496 36.9168 28.9441 36.89L33.4799 23.2823L34.6083 27.919Z" fill="#93278F"/>
</g>
</g>
<defs>
<clipPath id="clip0_10_119">
<rect width="46.6309" height="41.4767" fill="white" transform="translate(0.443176)"/>
</clipPath>
<clipPath id="clip1_10_119">
<rect width="46.628" height="41.4894" fill="white" transform="translate(0.444672 -0.041626)"/>
</clipPath>
</defs>
</svg>
