<svg width="16" height="19" viewBox="0 0 16 19" fill="none" xmlns="http://www.w3.org/2000/svg">
<path d="M12.6 3.32C11.9165 2.53962 11.5397 1.53743 11.54 0.5H8.45003V12.9C8.4262 13.571 8.1429 14.2066 7.6598 14.6729C7.17669 15.1393 6.53148 15.3999 5.86003 15.4C4.44003 15.4 3.26003 14.24 3.26003 12.8C3.26003 11.08 4.92003 9.79 6.63003 10.32V7.16C3.18003 6.7 0.160034 9.38 0.160034 12.8C0.160034 16.13 2.92003 18.5 5.85003 18.5C8.99004 18.5 11.54 15.95 11.54 12.8V6.51C12.793 7.40985 14.2974 7.89265 15.84 7.89V4.8C15.84 4.8 13.96 4.89 12.6 3.32Z" fill="#F7F3E3"/>
</svg>
